HIERARCHY
ROOT pelvis
{
  OFFSET 0 100 0
  CHANNELS 6 Xposition Yposition Zposition Zrotation Xrotation Yrotation
  JOINT pelvis_right_femur
  {
    OFFSET -10.78128 -3.44521 -0.5502486
    CHANNELS 3 Zrotation Xrotation Yrotation
    JOINT right_femur_tibia
    {
      OFFSET -0.8047443 -44.0398 -0.1307829
      CHANNELS 3 Zrotation Xrotation Yrotation
      JOINT right_tibia_foot
      {
        OFFSET 3.006224 -47.83518 -5
        CHANNELS 3 Zrotation Xrotation Yrotation
        End Site
        {
          OFFSET 0 -5 15
        }
      }
    }
  }
  JOINT pelvis_left_femur
  {
    OFFSET 10.78128 -3.44521 -0.5502486
    CHANNELS 3 Zrotation Xrotation Yrotation
    JOINT left_femur_tibia
    {
      OFFSET 0.8047443 -44.0398 -0.1307829
      CHANNELS 3 Zrotation Xrotation Yrotation
      JOINT left_tibia_foot
      {
        OFFSET -4.370144 -48.10324 -4.275266
        CHANNELS 3 Zrotation Xrotation Yrotation
        End Site
        {
          OFFSET 0 -5 15
        }
      }
    }
  }
  JOINT pelvis_spine1
  {
    OFFSET 0 6.468898 -3.129235
    CHANNELS 3 Zrotation Xrotation Yrotation
    JOINT spine1
    {
      OFFSET 0 23.15396 4.99043
      CHANNELS 3 Zrotation Xrotation Yrotation
      JOINT spine2
      {
        OFFSET 0 20.79997 -5.064912
        CHANNELS 3 Zrotation Xrotation Yrotation
        JOINT neck
        {
          OFFSET 0 14.38658 9.616178
          CHANNELS 3 Zrotation Xrotation Yrotation
          End Site
          {
            OFFSET 0 20 0
          }
        }
      }
      JOINT right_manubrium
      {
        OFFSET -5.722621 16.35077 3.967754
        CHANNELS 3 Zrotation Xrotation Yrotation
        JOINT right_clavicle
        {
          OFFSET -13.16364 1.694482 -4.693211
          CHANNELS 3 Zrotation Xrotation Yrotation
          JOINT right_humerus
          {
            OFFSET -28.5034 -0.3100689 -2.792744
            CHANNELS 3 Zrotation Xrotation Yrotation
            JOINT right_radius
            {
              OFFSET -25.15693 0.02248979 -1.271978
              CHANNELS 3 Zrotation Xrotation Yrotation
              End Site
              {
                OFFSET -15 0 0
              }
            }
          }
        }
      }
      JOINT left_manubrium
      {
        OFFSET 5.722621 16.35077 3.967754
        CHANNELS 3 Zrotation Xrotation Yrotation
        JOINT left_clavicle
        {
          OFFSET 13.16364 1.694482 -4.693211
          CHANNELS 3 Zrotation Xrotation Yrotation
          JOINT left_humerus
          {
            OFFSET 29.39168 -1.063119 -2.237045
            CHANNELS 3 Zrotation Xrotation Yrotation
            JOINT left_radius
            {
              OFFSET 24.59957 -0.9528479 0.9047498
              CHANNELS 3 Zrotation Xrotation Yrotation
              End Site
              {
                OFFSET 15 -0 -0
              }
            }
          }
        }
      }
    }
  }
}
MOTION
Frames: 6
Frame Time: 0.0416666666667
28.05068 104.8829 235.7674 1.789422 -6.543738 2.282057 1.209107 10.48757 7.623083 3.786672e-09 33.02981 3.382412e-09 5.849154 -10.63463 -3.886619 -2.993403 -16.48567 -8.989885 7.126834e-10 19.75661 -3.900237e-09 -3.225825 -8.949791 21.18961 -1.912851 -0.2230209 8.091984 -0.8436673 9.871997 -3.116106 2.905632 21.41516 5.443818 1.820756 -17.1148 8.456639 2.427111 -21.17275 10.86503 81.17016 25.21873 -6.024666 8.251067e-10 -1.538991e-10 24.84572 -23.47138 13.52951 13.55423 3.858909 -14.00306 -2.855787 -93.56945 21.63356 25.00657 3.874175e-10 -1.578654e-09 -9.982414 -0.759887 6.49842 14.91349
29.37375 105.1603 241.9967 1.995032 -7.050562 2.431533 0.7232264 8.8021 7.758672 4.102004e-09 39.71389 3.195928e-09 5.844563 -8.212719 -4.571536 -3.993131 -13.54081 -9.912391 1.774203e-09 21.11251 -3.113413e-09 -2.967466 -9.348406 21.13701 -2.196194 -0.2089691 7.585266 -0.9423675 9.93415 -3.191144 2.920231 21.61238 5.616513 1.886527 -16.9492 8.632246 2.781488 -20.30719 10.78415 81.49884 25.46274 -6.716735 1.187096e-09 -1.329489e-10 23.43697 -23.05911 13.31528 13.1049 3.634701 -13.84613 -3.030639 -92.66964 22.13528 23.90206 4.663492e-10 -1.483417e-09 -9.659406 -0.6618171 6.594191 14.87298
30.64785 105.8207 247.9385 2.322079 -7.72918 2.828415 0.1456395 5.820679 7.83964 3.825021e-09 46.94848 2.864524e-09 5.900745 -6.164382 -5.634455 -5.060338 -9.416456 -10.8676 2.686382e-09 21.51578 -2.022999e-09 -2.352214 -10.24591 21.13227 -2.637978 -0.1876194 6.906191 -0.9705327 10.07917 -3.521808 2.887512 21.95967 5.794443 1.863961 -16.6303 8.839367 3.173006 -19.34698 10.73824 82.50033 25.92463 -8.056366 1.731144e-09 -2.866396e-10 21.67402 -22.57022 13.28895 12.52742 3.48215 -14.05137 -3.341344 -91.48241 22.72172 22.02156 2.906188e-10 -1.11996e-09 -10.11542 -0.4433081 6.781804 14.67156
31.81727 106.7145 253.466 2.581717 -8.289663 3.40745 -0.1833593 1.627166 7.825475 3.049935e-09 52.13979 2.088541e-09 5.656251 -5.448293 -6.885346 -5.813756 -4.468792 -11.70138 3.105423e-09 21.07531 -9.417473e-10 -1.592373 -11.37141 20.9716 -3.054434 -0.1626391 6.060972 -0.8054443 10.13826 -4.114613 2.821286 22.30155 5.83834 1.700974 -16.23307 8.984007 3.488552 -18.32658 10.65342 83.70188 26.53929 -9.870311 2.255325e-09 -4.578248e-10 19.66421 -21.5178 13.39131 11.62517 3.419412 -14.57508 -3.653606 -89.85347 23.42125 19.48756 -3.306255e-10 -3.221191e-10 -11.2135 -0.1144722 7.186296 14.21401
32.86889 107.6439 258.6499 2.72597 -8.526515 4.095406 -0.2340235 -3.100098 7.564521 2.419166e-09 54.25228 1.012609e-09 5.187596 -5.455483 -7.956852 -6.219651 0.5038773 -12.31335 2.805721e-09 19.71279 9.319284e-11 -0.9141454 -12.67754 20.65757 -3.348149 -0.1399146 5.196515 -0.5207176 10.07247 -4.785693 2.754242 22.56768 5.823967 1.516365 -15.95097 9.087661 3.623244 -17.39995 10.5268 84.99427 27.05041 -11.81447 2.50216e-09 -5.364039e-10 17.7196 -20.34386 13.48015 10.70482 3.541051 -15.28889 -3.918043 -88.22729 23.94865 16.79674 -1.054969e-09 5.793682e-10 -12.76136 0.3719338 7.718997 13.4886
33.81324 108.3713 263.6726 2.761022 -8.388544 4.813145 -0.05486319 -7.867859 7.007016 1.794178e-09 52.55754 1.857912e-10 4.700869 -5.949201 -8.660683 -6.316257 4.906938 -12.62544 1.942817e-09 17.5301 6.572644e-10 -0.4920177 -14.19253 20.25164 -3.487784 -0.08836109 4.432393 -0.1877927 9.836443 -5.387051 2.72012 22.741 5.79656 1.372858 -15.80408 9.169688 3.50949 -16.59776 10.34796 86.18768 27.28222 -13.60698 2.259138e-09 -4.740451e-10 16.0194 -19.36908 13.47752 9.944929 3.928774 -16.08139 -4.091762 -86.77613 24.18405 14.10392 -1.600357e-09 1.32071e-09 -14.74658 0.9986286 8.263981 12.52642
